<svg width="24" height="21" viewBox="0 0 24 21" fill="none" xmlns="http://www.w3.org/2000/svg">
<path d="M6.12547 17.92C5.91214 18.76 5.61214 19.3533 5.22547 19.7C4.8388 20.0333 4.25214 20.2 3.46547 20.2C2.4788 20.2 1.70547 19.84 1.14547 19.12C0.585469 18.3867 0.305469 17.26 0.305469 15.74V6.48C0.305469 4.50667 0.732135 3.08667 1.58547 2.22C2.45214 1.34 3.79214 0.899999 5.60547 0.899999C8.91214 0.899999 10.5655 2.32 10.5655 5.16V9.12H5.64547V5.06C5.64547 4.82 5.5588 4.7 5.38547 4.7C5.2388 4.7 5.16547 4.82 5.16547 5.06V16.2C5.16547 16.4267 5.26547 16.54 5.46547 16.54C5.66547 16.54 5.76547 16.3867 5.76547 16.08V12.52H5.56547V9.74H10.5655V20H6.76547L6.32547 17.92H6.12547ZM10.9877 8.52C10.9877 5.05333 12.641 3.32 15.9477 3.32C19.2543 3.32 20.9077 5.05333 20.9077 8.52V15.02C20.9077 18.4867 19.2477 20.22 15.9277 20.22C12.6343 20.22 10.9877 18.4867 10.9877 15.02V8.52ZM16.1877 16.36V7.18C16.1877 6.94 16.1077 6.82 15.9477 6.82C15.7877 6.82 15.7077 6.94 15.7077 7.18V16.36C15.7077 16.6 15.7943 16.72 15.9677 16.72C16.1143 16.72 16.1877 16.6 16.1877 16.36ZM23.593 17.5V20H21.353V17.5H23.593Z" fill="#F1600D"/>
</svg>
